<svg width="16" height="17" viewBox="0 0 16 17" fill="none" xmlns="http://www.w3.org/2000/svg">
<path fill-rule="evenodd" clip-rule="evenodd" d="M9.3385 13.3963L9.34238 12.061C9.34238 11.6928 9.6416 11.3943 10.0107 11.3943C10.3798 11.3943 10.679 11.6928 10.679 12.061V13.3787C10.679 13.6997 10.679 13.8602 10.782 13.9586C10.8849 14.0571 11.0424 14.0504 11.3574 14.037C12.5993 13.9845 13.3624 13.8165 13.9002 13.28C14.4393 12.7422 14.6072 11.9788 14.6595 10.7347C14.6699 10.488 14.6751 10.3646 14.629 10.2823C14.583 10.2 14.399 10.0973 14.0312 9.89191C13.6227 9.66378 13.3465 9.2279 13.3465 8.72768C13.3465 8.22747 13.6227 7.79159 14.0312 7.56345C14.399 7.35804 14.583 7.25533 14.629 7.17303C14.6751 7.09073 14.6699 6.96738 14.6595 6.72066C14.6072 5.47661 14.4393 4.71317 13.9002 4.1754C13.3151 3.59171 12.4634 3.44422 11.0184 3.40695C10.832 3.40214 10.679 3.55247 10.679 3.73847V5.39435C10.679 5.76254 10.3798 6.06101 10.0107 6.06101C9.6416 6.06101 9.34238 5.76254 9.34238 5.39435L9.33754 3.72672C9.337 3.543 9.18755 3.39435 9.00338 3.39435H6.66326C4.14284 3.39435 2.88263 3.39435 2.09964 4.1754C1.56053 4.71317 1.39261 5.47661 1.3403 6.72066C1.32993 6.96738 1.32474 7.09073 1.37081 7.17303C1.41688 7.25533 1.6008 7.35804 1.96864 7.56345C2.37716 7.79159 2.6533 8.22747 2.6533 8.72768C2.6533 9.2279 2.37716 9.66378 1.96864 9.89191C1.60081 10.0973 1.41688 10.2 1.37081 10.2823C1.32474 10.3646 1.32993 10.488 1.3403 10.7347C1.39261 11.9788 1.56053 12.7422 2.09964 13.28C2.88263 14.061 4.14284 14.061 6.66326 14.061H8.67018C8.9844 14.061 9.14151 14.061 9.23932 13.9637C9.33714 13.8664 9.33759 13.7097 9.3385 13.3963ZM10.679 9.39435V8.06101C10.679 7.69283 10.3798 7.39435 10.0107 7.39435C9.6416 7.39435 9.34238 7.69283 9.34238 8.06101V9.39435C9.34238 9.76254 9.6416 10.061 10.0107 10.061C10.3798 10.061 10.679 9.76254 10.679 9.39435Z" fill="#C2C2C2"/>
</svg>
